<?xml version="1.0" encoding="UTF-8" standalone="no"?>
<!-- Created with Inkscape (http://www.inkscape.org/) -->

<svg
   width="100mm"
   height="100mm"
   viewBox="0 0 100 100"
   version="1.1"
   id="svg850"
   inkscape:version="1.2.2 (1:1.2.2+202212051550+b0a8486541)"
   sodipodi:docname="kuota.svg"
   xmlns:inkscape="http://www.inkscape.org/namespaces/inkscape"
   xmlns:sodipodi="http://sodipodi.sourceforge.net/DTD/sodipodi-0.dtd"
   xmlns="http://www.w3.org/2000/svg"
   xmlns:svg="http://www.w3.org/2000/svg">
  <sodipodi:namedview
     id="namedview852"
     pagecolor="#ffffff"
     bordercolor="#666666"
     borderopacity="1.0"
     inkscape:showpageshadow="2"
     inkscape:pageopacity="0.0"
     inkscape:pagecheckerboard="true"
     inkscape:deskcolor="#d1d1d1"
     inkscape:document-units="mm"
     showgrid="false"
     inkscape:zoom="2.1946698"
     inkscape:cx="209.82656"
     inkscape:cy="180.66499"
     inkscape:window-width="1469"
     inkscape:window-height="1080"
     inkscape:window-x="3819"
     inkscape:window-y="219"
     inkscape:window-maximized="0"
     inkscape:current-layer="g5213" />
  <defs
     id="defs847" />
  <g
     inkscape:label="Capa 1"
     inkscape:groupmode="layer"
     id="layer1">
    <g
       id="g5213"
       transform="matrix(1.2047113,0,0,1.2047113,-17.247915,-22.678643)">
      <path
         style="fill:#000000;stroke-width:0.0994497"
         d="m 37.331243,92.62525 c -0.383303,-0.170354 -0.688612,-0.51679 -0.831547,-0.943538 -0.07388,-0.220572 -0.113225,-1.301687 -0.113225,-3.111001 0,-3.045139 0.03409,-3.260984 0.575936,-3.646823 0.292914,-0.208569 0.381241,-0.213678 3.693545,-0.213678 h 3.393455 l 0.641276,0.528958 c 0.980713,0.808933 3.151284,2.064273 4.120646,2.383154 0.462617,0.152181 1.313398,0.344393 1.890628,0.42713 2.558453,0.366715 2.354798,0.391648 -2.961506,0.362494 -2.771405,-0.01517 -5.18661,-0.03757 -5.36712,-0.04974 l -0.3282,-0.02208 0.253612,-0.342525 c 0.139488,-0.188394 0.253614,-0.378594 0.253614,-0.422671 0,-0.04407 -0.762211,-0.08008 -1.693802,-0.08008 h -1.693802 l 0.02802,1.168537 0.02802,1.168538 15.638478,0.02456 15.638474,0.02446 v -1.208982 -1.208982 l -4.002854,0.06873 c -3.6965,0.06347 -4.825975,0.124802 -6.368534,0.345683 -0.65752,0.09412 -0.635047,0.02745 0.07834,-0.232554 0.89693,-0.32689 2.652534,-1.403082 4.00072,-2.452453 l 0.619423,-0.482146 h 3.916988 c 3.800493,0 3.924717,0.0062 4.176633,0.204235 0.450438,0.354321 0.495309,0.77048 0.422254,3.916807 -0.07534,3.244699 -0.108252,3.405786 -0.764242,3.740447 -0.372688,0.190128 -0.719748,0.193874 -17.663515,0.190055 -14.181068,-0.0031 -17.336914,-0.02766 -17.581712,-0.136504 z m 15.613616,-5.631093 c -2.399815,-0.269892 -4.320167,-0.956129 -6.265336,-2.23892 -1.8817,-1.240933 -3.795016,-3.463166 -4.750858,-5.517923 -0.859943,-1.848603 -1.215081,-3.531609 -1.205989,-5.715203 0.01394,-3.348045 0.931658,-5.877476 3.09363,-8.526725 1.109609,-1.359697 2.670196,-2.613974 4.267919,-3.430213 2.180596,-1.114006 3.798783,-1.469452 6.65073,-1.460855 1.562971,0.0052 2.06786,0.04396 2.921258,0.227043 2.912942,0.624966 5.703943,2.412845 7.793149,4.992195 0.884675,1.092241 2.06041,3.613963 2.408296,5.165336 0.382384,1.705205 0.425883,4.034292 0.106103,5.680445 -0.785604,4.044054 -3.570686,7.603207 -7.350823,9.393883 -2.449352,1.160271 -5.316831,1.695369 -7.668079,1.430937 z m 3.325898,-2.87949 c 3.088111,-0.629322 5.605111,-2.347591 7.409781,-5.05842 0.640913,-0.962723 1.259343,-2.381142 1.399258,-3.209301 l 0.06671,-0.394868 -2.461353,0.01455 -2.461357,0.01455 -0.318953,0.661397 c -0.495934,1.0284 -1.161846,1.837384 -1.918283,2.330439 -1.472722,0.959947 -2.984862,1.380512 -4.254141,1.183181 -2.148538,-0.334031 -3.775369,-1.493188 -4.643885,-3.3089 l -0.420017,-0.878088 -2.515613,-0.0041 -2.515614,-0.0041 0.06763,0.372938 c 0.233332,1.286806 0.890994,2.727093 1.813134,3.970792 0.80986,1.092251 1.492722,1.754194 2.5688,2.490081 2.530166,1.730293 5.443362,2.377963 8.183909,1.819479 z m -0.608845,-7.466683 c 0.969323,-0.484385 1.726766,-1.521589 1.863412,-2.551672 0.143097,-1.078721 -0.558114,-2.359902 -1.573757,-2.875424 -1.570206,-0.796992 -3.457304,-0.119362 -4.271037,1.533674 -0.585857,1.190117 -0.383627,2.31145 0.592995,3.288074 0.93676,0.936758 2.254169,1.172119 3.388387,0.605348 z m -7.915693,-3.139434 0.748631,-0.06326 0.05656,-0.477626 c 0.174681,-1.4749 1.418614,-3.168453 2.978419,-4.054973 0.996537,-0.566389 1.692962,-0.741036 3.002355,-0.752905 l 1.189531,-0.01084 0.501115,-0.812286 c 0.275613,-0.446748 0.66851,-1.117402 0.873106,-1.490319 0.204596,-0.372918 0.594704,-1.045904 0.866906,-1.495521 l 0.494914,-0.817477 -0.638142,-0.197104 c -2.134987,-0.659425 -4.22561,-0.657609 -6.392286,0.0052 -0.989876,0.302978 -2.366092,0.999855 -3.155972,1.598092 -0.859302,0.650818 -2.129073,1.920461 -2.71491,2.714657 -0.892276,1.209601 -1.680441,3.101662 -1.962869,4.712024 -0.23501,1.339996 -0.417143,1.205236 1.628912,1.205236 0.976301,0 2.111975,-0.02848 2.523723,-0.06326 z m 17.550627,-0.773493 c -0.112956,-1.60061 -0.790646,-3.550144 -1.748775,-5.030762 -0.90739,-1.402195 -2.85314,-3.367394 -3.092392,-3.123293 -0.04856,0.04954 -0.535973,0.82849 -1.083142,1.730995 -0.54717,0.902505 -1.134206,1.862071 -1.304524,2.132365 l -0.309669,0.491455 0.644907,0.602499 c 0.354698,0.331379 0.800532,0.813391 0.990741,1.071146 0.396747,0.537637 0.904533,1.797209 1.003815,2.489988 l 0.0677,0.472383 h 2.445197 2.445195 z M 40.197472,83.619879 c -4.048827,-0.07441 -3.828893,0.145606 -3.788441,-3.790252 0.02707,-2.633417 0.02806,-2.644264 0.275039,-3.004457 0.36692,-0.535109 0.602182,-0.621189 1.626927,-0.595296 0.958552,0.02425 1.054794,0.0741 1.057444,0.54802 0.0017,0.292833 0.536487,2.048348 0.752601,2.470235 l 0.131283,0.25628 -0.54063,-0.04489 -0.540631,-0.04479 v 0.708466 0.708466 h 0.383211 c 0.70499,0 1.605785,0.126711 1.605785,0.225887 0,0.186279 1.020773,1.615513 1.525582,2.136039 0.278488,0.287168 0.485497,0.512559 0.460016,0.500877 -0.02548,-0.01166 -1.352164,-0.0452 -2.948186,-0.07461 z M 65.954437,83.51678 c 0.06279,-0.08204 0.351018,-0.410224 0.640506,-0.729292 0.289489,-0.319057 0.720096,-0.911112 0.956916,-1.315661 0.23682,-0.404559 0.463655,-0.702914 0.504092,-0.663016 0.04042,0.03994 0.606037,0.07255 1.256916,0.07255 h 1.183412 l 9.78e-4,-0.721015 9.77e-4,-0.721006 H 69.54282 c -0.869957,0 -0.949229,-0.01558 -0.886267,-0.174038 0.351276,-0.884146 0.716665,-2.047637 0.890125,-2.834319 l 0.0603,-0.273484 1.365535,4.13e-4 c 1.178072,3e-4 1.409174,0.02694 1.683357,0.194153 0.674786,0.411442 0.676685,0.421732 0.676685,3.662726 v 2.921452 l -0.315722,0.282203 c -0.412469,0.368656 -0.690222,0.396242 -4.275496,0.424601 -2.565038,0.02033 -2.887366,0.0062 -2.786414,-0.126225 z M 27.44859,65.213667 c -2.411091,-0.482362 -4.31594,-1.428749 -6.254391,-3.107379 -1.431224,-1.239395 -2.407534,-2.652437 -2.566897,-3.715152 -0.13288,-0.886107 0.424523,-1.931215 1.182392,-2.216949 0.408395,-0.153965 18.65501,-0.146391 19.1702,0.0083 0.842508,0.252419 1.516181,1.132024 1.499601,1.958006 -0.01619,0.806621 -1.102911,2.683686 -2.120945,3.663469 -1.226272,1.180189 -3.235555,2.383556 -4.955573,2.967913 -1.849769,0.628434 -4.164125,0.800274 -5.954387,0.442124 z m 51.552108,0.01042 C 76.313881,64.655947 74.40222,63.64861 72.575774,61.838543 71.595547,60.86712 70.801212,59.763259 70.480407,58.92672 c -0.425049,-1.108382 -0.07913,-2.203306 0.836064,-2.646338 l 0.443477,-0.21468 9.694104,0.02632 9.69412,0.02632 0.413393,0.273597 c 0.922585,0.61058 1.059259,1.673955 0.381815,2.970833 -1.161117,2.222863 -3.436447,4.04648 -6.480981,5.194326 -2.02807,0.764628 -4.697086,1.040134 -6.461701,0.667 z m -34.32204,-6.759692 c -0.760664,-0.463838 -0.68822,-1.870564 0.140445,-2.727166 0.508892,-0.526047 1.055613,-0.825238 1.77637,-0.972093 1.022102,-0.20825 1.675759,0.01362 2.958016,1.004003 l 0.387723,0.29947 4.883116,-6.09e-4 c 2.692303,-3e-4 5.148353,-0.04396 5.474304,-0.09742 0.504645,-0.08266 0.657504,-0.161944 1.044223,-0.541766 0.779548,-0.765639 1.842157,-1.079784 2.90564,-0.859005 2.201351,0.456995 3.375406,2.8621 1.883619,3.858684 l -0.33792,0.225763 -10.402659,-4.13e-4 C 45.342706,58.65343 44.978325,58.646643 44.678658,58.464304 Z M 24.30713,54.728451 c -0.458314,-0.165916 -0.719315,-0.465324 -0.809492,-0.928625 -0.11152,-0.57294 0.0244,-1.078878 0.639767,-2.381371 0.329255,-0.696909 0.775682,-1.66988 0.992058,-2.162157 0.216376,-0.492276 0.615754,-1.364948 0.887505,-1.93927 0.271752,-0.574322 0.709701,-1.536499 0.973219,-2.13817 0.595111,-1.358762 0.849922,-1.71036 1.423379,-1.964027 0.880929,-0.389678 2.406691,-0.07487 2.880571,0.59434 0.10739,0.151656 0.532304,0.991777 0.944255,1.866935 0.411949,0.875158 0.882715,1.859712 1.046145,2.187896 0.554448,1.11338 2.125853,4.472802 2.316028,4.951308 0.412615,1.038191 0.126308,1.736967 -0.803029,1.959912 -0.682345,0.163688 -1.245369,0.05026 -1.655933,-0.333691 -0.324617,-0.303556 -1.26978,-2.328006 -2.722645,-5.831656 -0.260837,-0.629019 -0.562157,-1.335027 -0.6696,-1.568905 l -0.19535,-0.425234 -0.207359,0.524683 c -0.114046,0.288575 -0.608037,1.419731 -1.097757,2.513679 -0.489718,1.093947 -1.119818,2.503649 -1.400221,3.132667 -0.697084,1.563753 -0.703013,1.573846 -1.047363,1.782984 -0.436145,0.264876 -1.027402,0.327684 -1.494178,0.158702 z m 51.975407,-0.02126 c -0.630234,-0.222842 -0.837111,-0.600157 -0.780294,-1.423165 0.04686,-0.678812 0.114208,-0.844999 1.52005,-3.750706 0.349716,-0.722802 0.635831,-1.33826 0.635831,-1.367686 0,-0.06331 1.230515,-2.664968 1.764957,-3.731636 0.279263,-0.557352 0.481784,-0.820231 0.804448,-1.044223 0.403169,-0.279873 0.490526,-0.299306 1.342574,-0.298639 0.752209,5.98e-4 0.984344,0.03961 1.329414,0.223444 0.447016,0.238145 0.389733,0.136984 2.097486,3.70411 2.813893,5.877579 2.952078,6.203526 2.855381,6.734798 -0.13513,0.742471 -0.95942,1.216784 -1.87578,1.079371 -0.617285,-0.09257 -1.054437,-0.547988 -1.456005,-1.516877 -0.177311,-0.427806 -0.764601,-1.770614 -1.305081,-2.984016 -0.54048,-1.213403 -0.982701,-2.231127 -0.982701,-2.261608 0,-0.138946 -0.631709,-1.449468 -0.698678,-1.449468 -0.04145,0 -0.103913,0.113777 -0.13881,0.252839 -0.06045,0.24082 -0.440076,1.107205 -2.111607,4.8191 -0.406412,0.902506 -0.833689,1.852399 -0.949497,2.110866 -0.247271,0.551879 -0.499618,0.802617 -0.964426,0.958306 -0.422211,0.141407 -0.550613,0.134936 -1.087262,-0.0548 z M 28.328712,42.070889 C 27.501234,41.537407 27.525083,41.730285 27.5571,35.83064 l 0.02806,-5.171389 0.239667,-0.319427 c 0.368612,-0.491289 0.814685,-0.658462 1.605922,-0.60185 0.789781,0.05651 1.224402,0.312189 1.472705,0.866362 0.145778,0.325357 0.157345,0.899592 0.112723,5.595972 l -0.04972,5.233411 -0.248625,0.26599 c -0.358262,0.383286 -0.712727,0.540292 -1.36494,0.604586 -0.516413,0.05091 -0.619695,0.02737 -1.024181,-0.233406 z m 52.424322,0.109829 c -0.184859,-0.09449 -0.464561,-0.349127 -0.621563,-0.565856 L 79.846022,41.22081 v -5.219315 c 0,-5.125856 0.0037,-5.225358 0.208504,-5.556678 0.295087,-0.47747 0.717519,-0.673607 1.442462,-0.669746 0.680116,0.0036 1.127698,0.206745 1.471307,0.667711 0.206557,0.277108 0.209294,0.34929 0.209294,5.519464 0,5.089885 -0.0058,5.248469 -0.202412,5.583238 -0.265979,0.452735 -0.712625,0.702403 -1.359827,0.760116 -0.377233,0.03364 -0.621359,-0.0018 -0.862316,-0.124882 z M 28.656499,29.039023 c -0.349701,-0.111168 -0.896309,-0.685249 -1.025673,-1.077229 -0.310125,-0.939689 0.164481,-2.177874 0.995928,-2.598243 l 0.442578,-0.223762 h 26.2867 26.286697 l 0.492465,0.249546 c 0.844598,0.427991 1.346255,1.577666 1.089127,2.496027 -0.205354,0.733472 -0.958239,1.230327 -1.866624,1.231863 -0.434118,7.14e-4 -0.804508,-0.20114 -1.226952,-0.668734 l -0.346751,-0.383817 -24.327642,0.0044 -24.327639,0.0044 -0.280027,0.257488 c -0.564299,0.518876 -0.921597,0.701341 -1.449242,0.740096 -0.286787,0.02106 -0.621114,0.0066 -0.742945,-0.03212 z"
         id="path4601"
         sodipodi:nodetypes="csssscssscccssscccccccscsscscsscccssssssccssssscsscccsssscccsssccssssssccssccssscscssssccssssscssscccscssccscccccsssccccsscscccscscccscsccccssscsssccsssscccscssscssscccssscsccsssssssssssscsscsssssssssssssssssssssssssssscsssscsssscscsccsscsccsscccsscscccsscc" />
      <text
         xml:space="preserve"
         style="font-weight:bold;font-size:13.0368px;line-height:1.25;font-family:Hack;-inkscape-font-specification:'Hack Bold';letter-spacing:0px;word-spacing:0px;stroke-width:0.174599"
         x="32.940098"
         y="41.933128"
         id="text5158"><tspan
           sodipodi:role="line"
           id="tspan5156"
           style="font-style:normal;font-variant:normal;font-weight:bold;font-stretch:normal;font-size:13.0368px;font-family:Lato;-inkscape-font-specification:'Lato Bold';stroke-width:0.174599"
           x="32.940098"
           y="41.933128">KUOTA</tspan></text>
    </g>
  </g>
</svg>
